<svg width="242" height="244" viewBox="0 0 242 244" fill="none" xmlns="http://www.w3.org/2000/svg">
<path d="M106.942 0H-27C-27 17.5895 -23.5359 35.0072 -16.8047 51.2578C-10.0735 67.5082 -0.207008 82.2734 12.2305 94.7109C24.6681 107.149 39.434 117.015 55.6846 123.746C71.9352 130.477 89.3529 133.942 106.942 133.942V0ZM242 0H108.058C108.058 17.5895 111.523 35.0072 118.254 51.2578C124.985 67.5082 134.852 82.2734 147.289 94.7109C159.727 107.148 174.492 117.015 190.742 123.746C206.993 130.477 224.41 133.942 242 133.942V0ZM106.942 135.058C89.3529 135.058 71.9352 138.523 55.6846 145.254C39.434 151.985 24.6681 161.851 12.2305 174.289C-0.207008 186.727 -10.0735 201.492 -16.8047 217.742C-23.5359 233.993 -27 251.41 -27 269H106.942V135.058ZM242 135.058C224.41 135.058 206.993 138.523 190.742 145.254C174.492 151.985 159.727 161.852 147.289 174.289C134.852 186.727 124.985 201.492 118.254 217.742C111.523 233.993 108.058 251.41 108.058 269H242V135.058Z" fill="url(#paint0_linear_216_197)" fill-opacity="0.6"/>
<defs>
<linearGradient id="paint0_linear_216_197" x1="107.5" y1="269" x2="107.5" y2="0" gradientUnits="userSpaceOnUse">
<stop stop-color="white" stop-opacity="0.24"/>
<stop offset="1" stop-color="white" stop-opacity="0"/>
</linearGradient>
</defs>
</svg>
