<svg width="268" height="318" viewBox="0 0 268 318" fill="none" xmlns="http://www.w3.org/2000/svg">
<path d="M78.7129 160.574C122.185 160.574 157.426 195.815 157.426 239.287C157.426 282.759 122.185 318 78.7129 318C35.241 318 0 282.759 0 239.287C7.01045e-05 195.815 35.241 160.574 78.7129 160.574ZM242.436 160.574C284.169 160.574 318 194.406 318 236.139V318H160.574V236.139C160.574 194.406 194.406 160.574 236.139 160.574H242.436ZM81.8613 0C123.594 0 157.426 33.8314 157.426 75.5645V157.426H0V0H81.8613ZM318 157.426H236.139C194.406 157.426 160.574 123.594 160.574 81.8613V0H318V157.426Z" fill="url(#paint0_linear_216_192)"/>
<defs>
<linearGradient id="paint0_linear_216_192" x1="318" y1="-109.71" x2="159" y2="318" gradientUnits="userSpaceOnUse">
<stop stop-color="white" stop-opacity="0.24"/>
<stop offset="1" stop-color="white" stop-opacity="0"/>
</linearGradient>
</defs>
</svg>
