<svg width="121" height="50" viewBox="0 0 121 50" fill="none" xmlns="http://www.w3.org/2000/svg">
<path d="M0.0412598 38.9532V12.1301H11.5655C23.131 13.1682 22.6354 29.2786 11.5655 30.3997H6.31969V38.9532H0.0412598Z" fill="black"/>
<path d="M11.585 12.1304C23.2106 13.1687 22.7123 29.2785 11.585 30.3999H6.31152V38.9536H0V12.1304H11.585ZM12.8721 19.563L14.0352 20.6421C10.3538 24.4618 8.01622 25.791 3.6123 27.4517C6.39427 27.6593 10.2151 26.3307 15.3223 21.5142L16.1104 22.3032L16.4434 18.4419L12.8721 19.563Z" fill="#F97616"/>
<path d="M28.2584 39.5488C26.795 39.5488 25.5695 39.2805 24.5817 38.7439C23.5939 38.1951 22.8439 37.4756 22.3317 36.5854C21.8317 35.683 21.5817 34.6952 21.5817 33.622C21.5817 32.622 21.7585 31.744 22.1122 30.9879C22.4658 30.2318 22.9902 29.5916 23.6853 29.0672C24.3804 28.5306 25.2341 28.0977 26.2463 27.7684C27.1243 27.5123 28.1182 27.2867 29.228 27.0916C30.3377 26.8965 31.5023 26.7135 32.7218 26.5428C33.9535 26.3721 35.173 26.2013 36.3803 26.0306L34.9901 26.7989C35.0145 25.2501 34.6852 24.1038 34.0023 23.3599C33.3316 22.6038 32.173 22.2258 30.5267 22.2258C29.4901 22.2258 28.5389 22.4697 27.6731 22.9575C26.8072 23.4331 26.2036 24.2258 25.8621 25.3355L22.2951 24.238C22.7829 22.5428 23.7097 21.1953 25.0756 20.1953C26.4536 19.1953 28.2828 18.6953 30.5633 18.6953C32.3316 18.6953 33.8682 19.0002 35.173 19.6099C36.4901 20.2075 37.4535 21.1587 38.0632 22.4636C38.3803 23.1099 38.5754 23.7928 38.6486 24.5123C38.7218 25.2318 38.7583 26.0062 38.7583 26.8355V39H35.3742V34.4818L36.0328 35.0671C35.2157 36.5793 34.173 37.7073 32.9047 38.4512C31.6487 39.1829 30.0999 39.5488 28.2584 39.5488ZM28.9353 36.4208C30.0206 36.4208 30.9535 36.2317 31.734 35.8537C32.5145 35.4634 33.1425 34.9696 33.6182 34.372C34.0938 33.7744 34.4047 33.1525 34.5511 32.5062C34.7584 31.9208 34.8742 31.2623 34.8986 30.5306C34.9352 29.7989 34.9535 29.2135 34.9535 28.7745L36.1974 29.2318C34.9901 29.4147 33.8925 29.5794 32.9047 29.7257C31.917 29.872 31.0206 30.0184 30.2157 30.1647C29.4231 30.2989 28.7158 30.4635 28.0938 30.6586C27.5694 30.8415 27.0999 31.0611 26.6853 31.3171C26.2829 31.5732 25.9597 31.8842 25.7158 32.2501C25.4841 32.6159 25.3682 33.061 25.3682 33.5854C25.3682 34.0976 25.4963 34.5732 25.7524 35.0122C26.0085 35.4391 26.3987 35.7805 26.9231 36.0366C27.4475 36.2927 28.1182 36.4208 28.9353 36.4208ZM44.7057 47.7804L48.5288 37.372L48.5837 40.4451L39.9679 19.2441H43.9557L50.3947 35.6159H49.2239L55.3702 19.2441H59.2482L48.3459 47.7804H44.7057ZM61.748 39V12.6588H77.3515V16.4819H65.5712V23.9087H75.1564V27.7501H65.5712V39H61.748ZM85.1467 39.5488C83.6833 39.5488 82.4577 39.2805 81.4699 38.7439C80.4821 38.1951 79.7321 37.4756 79.2199 36.5854C78.7199 35.683 78.4699 34.6952 78.4699 33.622C78.4699 32.622 78.6468 31.744 79.0004 30.9879C79.3541 30.2318 79.8785 29.5916 80.5736 29.0672C81.2687 28.5306 82.1223 28.0977 83.1345 27.7684C84.0126 27.5123 85.0065 27.2867 86.1162 27.0916C87.2259 26.8965 88.3906 26.7135 89.6101 26.5428C90.8418 26.3721 92.0613 26.2013 93.2686 26.0306L91.8783 26.7989C91.9027 25.2501 91.5735 24.1038 90.8905 23.3599C90.2198 22.6038 89.0613 22.2258 87.415 22.2258C86.3784 22.2258 85.4272 22.4697 84.5613 22.9575C83.6955 23.4331 83.0918 24.2258 82.7504 25.3355L79.1833 24.238C79.6711 22.5428 80.598 21.1953 81.9638 20.1953C83.3418 19.1953 85.1711 18.6953 87.4516 18.6953C89.2198 18.6953 90.7564 19.0002 92.0613 19.6099C93.3783 20.2075 94.3417 21.1587 94.9515 22.4636C95.2686 23.1099 95.4637 23.7928 95.5368 24.5123C95.61 25.2318 95.6466 26.0062 95.6466 26.8355V39H92.2625V34.4818L92.921 35.0671C92.1039 36.5793 91.0613 37.7073 89.793 38.4512C88.5369 39.1829 86.9881 39.5488 85.1467 39.5488ZM85.8235 36.4208C86.9089 36.4208 87.8418 36.2317 88.6223 35.8537C89.4028 35.4634 90.0308 34.9696 90.5064 34.372C90.982 33.7744 91.293 33.1525 91.4393 32.5062C91.6466 31.9208 91.7625 31.2623 91.7869 30.5306C91.8235 29.7989 91.8418 29.2135 91.8418 28.7745L93.0856 29.2318C91.8783 29.4147 90.7808 29.5794 89.793 29.7257C88.8052 29.872 87.9089 30.0184 87.104 30.1647C86.3113 30.2989 85.604 30.4635 84.9821 30.6586C84.4577 30.8415 83.9882 31.0611 83.5735 31.3171C83.1711 31.5732 82.8479 31.8842 82.604 32.2501C82.3723 32.6159 82.2565 33.061 82.2565 33.5854C82.2565 34.0976 82.3845 34.5732 82.6406 35.0122C82.8967 35.4391 83.287 35.7805 83.8113 36.0366C84.3357 36.2927 85.0065 36.4208 85.8235 36.4208ZM100.031 39V19.2441H103.433V24.0367L102.958 23.4148C103.201 22.7806 103.519 22.2014 103.909 21.677C104.299 21.1404 104.75 20.7014 105.262 20.3599C105.762 19.9941 106.317 19.7136 106.927 19.5185C107.549 19.3112 108.183 19.1892 108.829 19.1526C109.476 19.1039 110.098 19.1343 110.695 19.2441V22.8294C110.049 22.6587 109.329 22.6099 108.537 22.6831C107.756 22.7563 107.037 23.0063 106.378 23.4331C105.756 23.8355 105.262 24.3233 104.897 24.8965C104.543 25.4696 104.287 26.1099 104.128 26.8172C103.97 27.5123 103.891 28.2501 103.891 29.0306V39H100.031ZM114.179 16.0063V12.2929H118.002V16.0063H114.179ZM114.179 39V19.2441H118.002V39H114.179Z" fill="#F97616"/>
</svg>
